<svg width="177" height="24" viewBox="0 0 177 24" fill="none" xmlns="http://www.w3.org/2000/svg">
<path d="M40.8904 11.5612L40.6294 12.4939C40.2109 13.99 39.6246 15.3328 38.8707 16.5224C38.1168 17.712 37.2388 18.7259 36.237 19.564C35.2376 20.3932 34.1428 21.0285 32.9524 21.4701C31.7713 21.9117 30.5351 22.1325 29.2437 22.1325C27.9616 22.1325 26.8489 21.9117 25.9056 21.4701C24.9716 21.0285 24.2323 20.3932 23.6875 19.564C23.1453 18.7259 22.8253 17.712 22.7276 16.5224C22.6393 15.3328 22.8045 13.99 23.223 12.4939L23.484 11.5612C23.905 10.0561 24.4913 8.71329 25.2427 7.53269C25.9966 6.34308 26.8745 5.3292 27.8764 4.49106C28.8876 3.65292 29.9838 3.01306 31.1648 2.57146C32.3552 2.12986 33.5914 1.90906 34.8735 1.90906C36.1649 1.90906 37.2776 2.12986 38.2116 2.57146C39.1549 3.01306 39.893 3.65292 40.4259 4.49106C40.9681 5.3292 41.2834 6.34308 41.3717 7.53269C41.4719 8.71329 41.3114 10.0561 40.8904 11.5612ZM36.3761 12.4939L36.6446 11.5341C36.9371 10.4887 37.096 9.56946 37.1213 8.77638C37.1467 7.9833 37.0432 7.3164 36.8108 6.77566C36.5784 6.23493 36.2239 5.82938 35.7474 5.55901C35.2734 5.27963 34.6808 5.13994 33.9696 5.13994C33.2584 5.13994 32.5876 5.27963 31.9573 5.55901C31.3389 5.82938 30.7622 6.23493 30.2272 6.77566C29.7016 7.3164 29.2296 7.9833 28.8112 8.77638C28.3928 9.56946 28.0373 10.4887 27.7449 11.5341L27.4763 12.4939C27.1864 13.5303 27.0275 14.4496 26.9996 15.2517C26.9742 16.0447 27.0765 16.7162 27.3064 17.2659C27.5388 17.8066 27.892 18.2167 28.366 18.4961C28.84 18.7755 29.4326 18.9151 30.1438 18.9151C30.855 18.9151 31.5258 18.7755 32.1561 18.4961C32.7864 18.2167 33.3643 17.8066 33.89 17.2659C34.4181 16.7162 34.8914 16.0447 35.3098 15.2517C35.7307 14.4496 36.0861 13.5303 36.3761 12.4939Z" fill="white"/>
<path d="M51.5686 14.8483H46.6293C46.4787 14.8483 46.3895 14.7307 46.4301 14.5857L47.1688 11.9452C47.2094 11.8001 47.3644 11.6825 47.515 11.6825H52.4543C53.2597 11.6825 53.9506 11.5563 54.527 11.3037C55.106 11.0422 55.5768 10.6814 55.9397 10.2214C56.3025 9.76141 56.5647 9.2428 56.7262 8.66556C56.8902 8.07931 56.9258 7.53364 56.8329 7.02856C56.7401 6.52348 56.4837 6.11761 56.0638 5.81095C55.6438 5.5043 55.0311 5.35097 54.2257 5.35097H50.7474C50.5968 5.35097 50.4418 5.46856 50.4012 5.61361L45.9267 21.6072C45.8861 21.7522 45.7311 21.8698 45.5805 21.8698H41.9114C41.7608 21.8698 41.6716 21.7522 41.7122 21.6072L47.0762 2.4343C47.1168 2.28925 47.2718 2.17166 47.4224 2.17166H55.1151C56.7167 2.17166 58.0105 2.45126 58.9967 3.01046C59.9947 3.56063 60.6619 4.32277 60.9981 5.29685C61.3343 6.27094 61.3271 7.38482 60.9764 8.63851C60.6206 9.91023 60.0083 11.0106 59.1397 11.9396C58.271 12.8686 57.19 13.5856 55.8967 14.0907C54.6128 14.5958 53.1701 14.8483 51.5686 14.8483Z" fill="white"/>
<path d="M8.51459 2.5066C8.55518 2.36155 8.71018 2.24396 8.8608 2.24396H16.8585C17.08 2.24396 17.1417 2.48485 16.9647 2.65875L11.074 8.44657L5.99398 13.2731C5.78044 13.476 5.47558 13.3692 5.54633 13.1163L8.51459 2.5066Z" fill="white"/>
<path d="M25.0568 2.66056C25.236 2.48691 25.1752 2.2438 24.9525 2.2438H19.778C19.6906 2.2438 19.5972 2.28416 19.5268 2.35234L9.54743 12.0206L14.1174 21.6887C14.1496 21.7568 14.2204 21.7972 14.3078 21.7972H19.4823C19.705 21.7972 19.9019 21.5541 19.8198 21.3804L15.3955 12.0204L25.0568 2.66056Z" fill="white"/>
<path d="M8.34772 13.7749C8.27999 13.6343 8.06384 13.6313 7.91418 13.7689L4.59217 16.8236C4.54203 16.8698 4.50594 16.9265 4.4896 16.9849L3.21673 21.5346C3.17615 21.6796 3.26536 21.7972 3.41598 21.7972H11.674C11.8974 21.7972 12.0944 21.5528 12.0108 21.3793L8.34772 13.7749Z" fill="white"/>
<path d="M83.8695 10.784H95.2295V9.312H83.8695V7.392C87.7415 7.296 91.2455 6.944 94.3655 6.352L93.6135 4.976C90.3175 5.632 86.5575 5.984 82.3655 6.016V10.992C82.2855 14.16 81.6935 16.64 80.6055 18.432L81.7255 19.616C83.0535 17.472 83.7735 14.608 83.8695 10.992V10.784ZM94.0295 12.672H85.0855V19.648H86.6055V19.008H92.5095V19.648H94.0295V12.672ZM86.6055 17.52V14.128H92.5095V17.52H86.6055ZM109.517 12.864H98.5735V19.664H100.109V19.008H107.981V19.664H109.517V12.864ZM100.109 17.552V14.32H107.981V17.552H100.109ZM97.5335 11.376C101.629 11.216 105.357 10.992 108.701 10.704C109.069 11.296 109.437 11.92 109.821 12.592L111.309 11.856C110.141 9.92 108.909 8.16 107.613 6.56L106.237 7.216C106.765 7.888 107.293 8.592 107.805 9.36C105.261 9.6 102.637 9.776 99.9175 9.872C101.261 8.656 102.573 7.152 103.869 5.36L102.285 4.816C100.141 7.952 98.4615 9.664 97.2455 9.936L97.5335 11.376ZM124.717 11.168H115.405V19.632H116.925V19.072H123.949V19.648H125.469V15.376H116.925V14.528H124.717V11.168ZM116.925 17.728V16.576H123.949V17.728H116.925ZM116.925 13.312V12.384H123.229V13.312H116.925ZM126.925 9.168H120.893C120.765 8.832 120.653 8.512 120.525 8.224L121.293 8.72C121.629 8.272 121.933 7.776 122.205 7.248H123.021C123.373 7.744 123.677 8.256 123.933 8.768L125.277 8.272C125.101 7.952 124.893 7.6 124.637 7.248H127.245V5.92H122.797C122.893 5.664 122.973 5.408 123.069 5.136L121.613 4.816C121.293 5.92 120.749 6.944 120.013 7.904L120.285 8.08L118.941 8.304C119.085 8.56 119.229 8.848 119.357 9.168H113.165V12.224H114.653V10.448H125.437V12.224H126.925V9.168ZM115.325 7.248H116.029C116.381 7.792 116.685 8.352 116.957 8.928L118.349 8.4C118.157 8.032 117.901 7.648 117.613 7.248H120.013V5.92H115.981C116.077 5.664 116.189 5.392 116.285 5.12L114.829 4.8C114.429 5.952 113.773 7.04 112.845 8.032L114.173 8.864C114.589 8.368 114.973 7.824 115.325 7.248ZM134.557 5.424V13.072H137.869V14.672H134.365V16.08H137.869V17.744H133.741V19.2H143.421V17.744H139.373V16.08H142.861V14.672H139.373V13.072H142.653V5.424H134.557ZM141.197 11.728H139.373V9.904H141.197V11.728ZM137.869 11.728H136.013V9.904H137.869V11.728ZM136.013 8.592V6.768H137.869V8.592H136.013ZM139.373 6.768H141.197V8.592H139.373V6.768ZM129.037 10.688V12.144H130.621V15.808C129.981 15.968 129.325 16.112 128.653 16.224L129.021 17.68C130.701 17.28 132.269 16.784 133.741 16.208V14.736C133.229 14.96 132.701 15.152 132.157 15.344V12.144H133.773V10.688H132.157V7.264H133.965V5.824H128.797V7.264H130.621V10.688H129.037ZM151.485 19.6C152.477 19.6 152.989 19.072 152.989 18.048V14.032C154.253 13.936 155.405 13.824 156.461 13.696C156.829 14.24 157.165 14.768 157.453 15.28L158.669 14.432C157.965 13.28 156.941 11.92 155.613 10.384L154.493 11.088C154.877 11.552 155.229 12.016 155.581 12.48C153.933 12.672 151.997 12.848 149.773 12.992C151.645 11.936 153.853 10.32 156.397 8.112L154.989 7.424C154.269 8.08 153.565 8.688 152.893 9.248C151.773 9.328 150.653 9.392 149.533 9.456C150.429 8.816 151.293 8.016 152.125 7.056C154.429 6.896 156.445 6.64 158.141 6.272L157.389 5.008C154.237 5.616 150.365 5.936 145.789 5.936L146.237 7.248C147.645 7.248 148.973 7.216 150.237 7.168C149.341 8.16 148.573 8.816 147.933 9.136C147.613 9.28 147.277 9.376 146.909 9.408L147.229 10.752C148.669 10.672 150.045 10.576 151.325 10.48C149.917 11.52 148.621 12.288 147.437 12.8C147.053 12.928 146.605 13.024 146.125 13.072L146.541 14.4C148.301 14.32 149.933 14.24 151.469 14.144V17.68C151.469 18.032 151.293 18.208 150.957 18.208C150.445 18.208 149.901 18.176 149.325 18.112L149.677 19.6H151.485ZM155.149 14.768L154.141 15.76C155.821 17.024 157.133 18.208 158.061 19.312L159.149 18.224C158.077 17.072 156.749 15.92 155.149 14.768ZM148.765 14.88C147.709 16.064 146.397 17.104 144.861 18L145.821 19.248C147.421 18.272 148.749 17.136 149.837 15.84L148.765 14.88ZM166.157 15.744C164.685 16.464 162.957 17.04 161.005 17.472L161.181 18.992C163.037 18.544 164.701 17.936 166.157 17.2V15.744ZM163.373 4.816C162.797 6.56 162.125 8.144 161.357 9.568C161.165 9.856 160.941 10.064 160.701 10.16L161.085 11.552C161.885 11.44 162.653 11.328 163.389 11.2C162.637 12.496 162.013 13.408 161.517 13.936C161.325 14.112 161.101 14.256 160.829 14.384L161.229 15.792C162.781 15.536 164.429 15.056 166.157 14.336V12.944C165.133 13.392 164.125 13.744 163.133 14.016C164.013 12.864 165.085 11.072 166.365 8.64L165.005 8.128C164.717 8.72 164.429 9.28 164.157 9.792C163.613 9.888 163.069 9.968 162.525 10.032C163.293 8.848 164.061 7.296 164.829 5.392L163.373 4.816ZM166.637 12.064C168.957 11.888 171.117 11.648 173.101 11.344C173.325 11.728 173.549 12.096 173.741 12.464L174.925 11.648C174.349 10.624 173.533 9.424 172.477 8.064L171.325 8.784C171.645 9.216 171.965 9.648 172.285 10.096C171.005 10.288 169.709 10.448 168.413 10.576C168.893 9.936 169.437 9.056 170.045 7.904H174.909V6.448H171.405C171.213 5.824 171.005 5.264 170.797 4.752L169.245 5.008C169.469 5.456 169.677 5.936 169.869 6.448H165.981V7.904H168.461C167.709 9.344 167.085 10.256 166.605 10.608C166.541 10.64 166.429 10.688 166.301 10.72L166.637 12.064ZM167.821 12.56C167.757 14.32 167.549 15.584 167.181 16.352C166.797 17.152 166.157 17.84 165.261 18.416L166.221 19.616C167.309 18.88 168.077 18.016 168.541 17.024C168.957 16.08 169.213 14.592 169.293 12.56H167.821ZM173.677 19.36C174.413 19.296 174.909 19.12 175.133 18.8C175.357 18.448 175.485 17.52 175.485 15.984L174.173 15.52C174.173 16.32 174.141 16.944 174.093 17.376C174.061 17.76 173.885 17.968 173.597 18H172.701C172.509 17.968 172.413 17.808 172.413 17.552V12.384H170.957V17.84C170.957 18.848 171.517 19.36 172.653 19.36H173.677Z" fill="white" fill-opacity="0.9"/>
</svg>
